<svg width="16" height="16" viewBox="0 0 16 16" fill="none" xmlns="http://www.w3.org/2000/svg">
    <path d="M9 3C9 2.05719 9 1.58579 9.29289 1.29289C9.58579 1 10.0572 1 11 1H13C13.9428 1 14.4142 1 14.7071 1.29289C15 1.58579 15 2.05719 15 3V5C15 5.94281 15 6.41421 14.7071 6.70711C14.4142 7 13.9428 7 13 7H11C10.0572 7 9.58579 7 9.29289 6.70711C9 6.41421 9 5.94281 9 5V3Z" stroke="currentColor" stroke-width="1.5"/>
    <path d="M1 11C1 10.0572 1 9.58579 1.29289 9.29289C1.58579 9 2.05719 9 3 9H5C5.94281 9 6.41421 9 6.70711 9.29289C7 9.58579 7 10.0572 7 11V13C7 13.9428 7 14.4142 6.70711 14.7071C6.41421 15 5.94281 15 5 15H3C2.05719 15 1.58579 15 1.29289 14.7071C1 14.4142 1 13.9428 1 13V11Z" stroke="currentColor" stroke-width="1.5"/>
    <path d="M1 3C1 2.05719 1 1.58579 1.29289 1.29289C1.58579 1 2.05719 1 3 1H5C5.94281 1 6.41421 1 6.70711 1.29289C7 1.58579 7 2.05719 7 3V5C7 5.94281 7 6.41421 6.70711 6.70711C6.41421 7 5.94281 7 5 7H3C2.05719 7 1.58579 7 1.29289 6.70711C1 6.41421 1 5.94281 1 5V3Z" stroke="currentColor" stroke-width="1.5"/>
    <path d="M9 9H11M9 12L9 15H11M14 11H15V9M12 11V13M14 14H15V13V15" stroke="currentColor" stroke-width="1.5" stroke-linecap="round" stroke-linejoin="round"/>
</svg>
