<svg width="30" height="22" fill="none" xmlns="http://www.w3.org/2000/svg">
  <path fill="#0A17A7" d="M0 0h30v22H0z"/>
  <path fill-rule="evenodd" clip-rule="evenodd" d="m-1.374-2.108 12.803 8.866v-8.225h7.143v8.225l12.802-8.866L32.972.324 22.85 7.334H30v7.333h-7.15l10.122 7.01-1.598 2.431-12.802-8.866v8.225h-7.143v-8.225l-12.803 8.866-1.598-2.432 10.123-7.01H0V7.334h7.15L-2.972.323l1.598-2.431Z" fill="#fff"/>
  <path d="M20.001 6.965 33.571-2.2" stroke="#DB1F35" stroke-width=".667" stroke-linecap="round"/>
  <path d="m21.442 15.067 12.165 8.418" stroke="#DB1F35" stroke-width=".667" stroke-linecap="round"/>
  <path d="m8.578 6.942-12.69-8.78" stroke="#DB1F35" stroke-width=".667" stroke-linecap="round"/>
  <path d="m9.954 14.965-14.065 9.576" stroke="#DB1F35" stroke-width=".667" stroke-linecap="round"/>
  <path fill-rule="evenodd" clip-rule="evenodd" d="M0 13.2h12.857V22h4.286v-8.8H30V8.8H17.143V0h-4.286v8.8H0v4.4Z" fill="#E6273E"/>
</svg>
