<svg width="30" height="22" fill="none" xmlns="http://www.w3.org/2000/svg">
  <rect width="30" height="22" rx="2" fill="#fff"/>
  <path fill-rule="evenodd" clip-rule="evenodd" d="M27.857 1.1H2.143c-.592 0-1.072.492-1.072 1.1v17.6c0 .607.48 1.1 1.072 1.1h25.714c.592 0 1.072-.492 1.072-1.1V2.2c0-.608-.48-1.1-1.072-1.1ZM2.143 0C.959 0 0 .985 0 2.2v17.6C0 21.015.96 22 2.143 22h25.714C29.041 22 30 21.015 30 19.8V2.2C30 .985 29.04 0 27.857 0H2.143Z" fill="#DFDFDF"/>
  <mask id="a" style="mask-type:alpha" maskUnits="userSpaceOnUse" x="0" y="0" width="30" height="22">
    <rect x=".5" y=".5" width="29" height="21" rx="1.5" fill="#fff" stroke="#fff"/>
  </mask>
  <g mask="url(#a)">
    <path fill="#F44653" d="M20 0h10v22H20z"/>
    <path fill-rule="evenodd" clip-rule="evenodd" d="M0 22h10V0H0v22Z" fill="#1035BB"/>
  </g>
</svg>
