<svg width="14" height="16" viewBox="0 0 14 16" fill="none" xmlns="http://www.w3.org/2000/svg">
    <path fill-rule="evenodd" clip-rule="evenodd" d="M7.75342 1.89521C7.22784 2.46285 6.76796 3.36653 6.89132 4.23572C7.80304 4.30141 8.73367 3.80372 9.30131 3.16472C9.86801 2.52476 10.2513 1.63573 10.1469 0.75C9.32967 0.780249 8.33996 1.25572 7.75342 1.89521ZM13.5209 11.8435C13.3869 11.7917 11.3699 11.0116 11.3483 8.78676C11.3278 6.93444 12.9154 6.01412 13.089 5.9135C13.095 5.91004 13.0993 5.90754 13.1018 5.90602C12.1475 4.60673 10.6602 4.42855 10.1303 4.40822C9.35709 4.33541 8.60665 4.61077 7.99336 4.83581C7.60349 4.97887 7.26904 5.10159 7.01941 5.10159C6.74199 5.10159 6.39877 4.97467 6.01352 4.83222C5.50941 4.64582 4.93334 4.43281 4.3386 4.44273C2.95849 4.46211 1.68756 5.18997 0.977187 6.33943C-0.455856 8.65347 0.610419 12.0825 2.0066 13.9607C2.69003 14.8796 3.50392 15.9118 4.57161 15.874C5.04952 15.8564 5.3893 15.7215 5.74067 15.582C6.14615 15.421 6.56706 15.2539 7.23352 15.2539C7.86985 15.2539 8.27225 15.416 8.6591 15.5719C9.02881 15.7208 9.38431 15.8641 9.91622 15.8546C11.0231 15.8362 11.7245 14.9188 12.4023 13.9976C13.1367 12.9979 13.4659 12.0277 13.5204 11.8673C13.524 11.8565 13.5264 11.8494 13.5277 11.8462C13.5277 11.8462 13.5247 11.845 13.5209 11.8435Z" fill="white"/>
</svg>
