<svg width="22" height="22" viewBox="0 0 22 22" fill="none" xmlns="http://www.w3.org/2000/svg">
    <path fill-rule="evenodd" clip-rule="evenodd" d="M7.3305 0.60203C9.6832 -0.21988 12.3227 -0.202141 14.6637 0.667073C15.9629 1.15194 17.151 1.90881 18.1693 2.8608C17.8298 3.23332 17.4611 3.58219 17.11 3.94289C16.4428 4.61697 15.7756 5.29105 15.1084 5.96514C14.4471 5.32653 13.6395 4.84166 12.7616 4.56967C11.7316 4.25628 10.6196 4.20897 9.56615 4.43958C8.33713 4.70567 7.19589 5.3561 6.31217 6.2667C5.59817 6.994 5.05974 7.89278 4.732 8.86252C3.54395 7.92826 2.35589 6.99992 1.16199 6.06566C2.42027 3.52306 4.67933 1.51855 7.3305 0.60203Z" fill="#EA4335"/>
    <path fill-rule="evenodd" clip-rule="evenodd" d="M0.220262 8.82116C0.413394 7.86325 0.729428 6.92899 1.16836 6.05386C2.35642 6.98812 3.54447 7.91646 4.73838 8.85072C4.27018 10.2285 4.27018 11.7599 4.73838 13.1317C3.55032 14.066 2.36227 15.0003 1.17422 15.9286C0.0739504 13.7585 -0.259641 11.21 0.220262 8.82116Z" fill="#FBBC05"/>
    <path fill-rule="evenodd" clip-rule="evenodd" d="M10.889 8.93347C14.301 8.93347 17.7189 8.93347 21.1309 8.93347C21.4703 10.867 21.3942 12.8834 20.8558 14.7755C20.3583 16.5081 19.4161 18.1164 18.0993 19.3404C16.9463 18.4357 15.7934 17.531 14.6405 16.6263C15.7817 15.8517 16.5893 14.5981 16.8176 13.2263C14.8395 13.2263 12.8613 13.2263 10.8832 13.2263C10.889 11.7954 10.889 10.3644 10.889 8.93347Z" fill="#4285F4"/>
    <path fill-rule="evenodd" clip-rule="evenodd" d="M1.16199 15.9345C2.35004 15.0061 3.53809 14.0719 4.72615 13.1376C5.18264 14.4917 6.06051 15.6921 7.2193 16.514C7.94501 17.0284 8.77606 17.395 9.64223 17.5724C10.4967 17.7498 11.3804 17.7261 12.2407 17.5783C13.0952 17.4246 13.9204 17.1112 14.6402 16.6204C15.7932 17.5251 16.9461 18.4298 18.0991 19.3345C16.8525 20.4993 15.2899 21.2917 13.6395 21.676C11.8135 22.0959 9.88218 22.1077 8.06791 21.6169C6.6282 21.2326 5.27628 20.5407 4.11164 19.6006C2.88847 18.619 1.87014 17.3536 1.16199 15.9345Z" fill="#34A853"/>
</svg>
